<?xml version="1.0" encoding="UTF-8"?>
<svg xmlns="http://www.w3.org/2000/svg" xmlns:xlink="http://www.w3.org/1999/xlink" width="194.0059pt" height="72.3621pt" viewBox="0 0 194.0059 72.3621" version="1.1">
<g id="surface1">
<path style=" stroke:none;fill-rule:nonzero;fill:rgb(92.941284%,10.980225%,14.117432%);fill-opacity:1;" d="M 21.371094 38.820312 C 21.394531 38.757812 21.417969 38.699219 21.4375 38.644531 C 21.457031 38.589844 21.460938 38.519531 21.460938 38.429688 C 21.460938 37.796875 20.808594 37.203125 19.496094 36.648438 C 18.175781 36.089844 16.730469 35.808594 15.136719 35.808594 C 12.90625 35.808594 11.125 36.375 9.785156 37.503906 C 8.445312 38.644531 7.773438 40.140625 7.773438 42.003906 C 7.773438 43.867188 8.414062 45.335938 9.6875 46.421875 C 10.960938 47.5 12.710938 48.042969 14.925781 48.042969 C 16.203125 48.042969 17.289062 47.917969 18.1875 47.667969 C 19.085938 47.417969 20.011719 46.992188 20.960938 46.40625 C 21.21875 46.25 21.390625 46.113281 21.460938 46 C 21.542969 45.886719 21.582031 45.738281 21.582031 45.570312 C 21.582031 45.480469 21.574219 45.378906 21.554688 45.269531 C 21.535156 45.152344 21.507812 45.035156 21.480469 44.902344 L 21.949219 44.601562 L 25.910156 51.777344 L 25.390625 52.035156 C 25.210938 51.851562 25.058594 51.710938 24.933594 51.617188 C 24.816406 51.519531 24.71875 51.476562 24.636719 51.476562 C 24.519531 51.476562 24.207031 51.609375 23.707031 51.863281 C 20.960938 53.324219 18.0625 54.058594 15.007812 54.058594 C 10.902344 54.058594 7.648438 52.972656 5.238281 50.792969 C 2.828125 48.613281 1.621094 45.707031 1.621094 42.082031 C 1.621094 38.5625 2.800781 35.683594 5.15625 33.476562 C 7.519531 31.261719 10.628906 30.152344 14.5 30.152344 C 16.539062 30.152344 18.570312 30.484375 20.605469 31.152344 C 22.636719 31.820312 23.660156 32.15625 23.6875 32.15625 C 23.871094 32.140625 24.03125 32.082031 24.175781 31.980469 C 24.3125 31.882812 24.480469 31.699219 24.675781 31.445312 L 25.160156 31.65625 L 21.871094 39.054688 Z M 37.574219 44.902344 L 44.539062 44.902344 L 40.941406 34.730469 Z M 46.300781 53.667969 L 46.300781 53.046875 C 46.558594 52.972656 46.746094 52.878906 46.871094 52.753906 C 46.996094 52.636719 47.054688 52.464844 47.054688 52.253906 C 47.054688 52.152344 47.035156 52.027344 46.996094 51.871094 C 46.957031 51.726562 46.890625 51.511719 46.804688 51.242188 L 45.972656 48.746094 L 36.320312 48.746094 L 35.46875 51.242188 C 35.417969 51.378906 35.378906 51.511719 35.351562 51.636719 C 35.324219 51.761719 35.3125 51.878906 35.3125 51.988281 C 35.3125 52.269531 35.382812 52.488281 35.515625 52.65625 C 35.65625 52.832031 35.859375 52.957031 36.144531 53.046875 L 36.144531 53.667969 L 29.066406 53.667969 L 29.066406 53.046875 C 29.757812 52.644531 30.339844 51.703125 30.808594 50.226562 C 30.863281 50.074219 30.894531 49.957031 30.921875 49.882812 L 36.394531 33.25 C 36.5 32.917969 36.585938 32.632812 36.652344 32.390625 C 36.710938 32.148438 36.742188 31.972656 36.742188 31.875 C 36.742188 31.640625 36.699219 31.472656 36.613281 31.371094 C 36.519531 31.261719 36.367188 31.195312 36.144531 31.164062 L 36.144531 30.5625 L 46.492188 30.5625 L 46.492188 31.164062 C 46.277344 31.195312 46.117188 31.261719 46.03125 31.371094 C 45.9375 31.472656 45.894531 31.640625 45.894531 31.875 C 45.894531 31.957031 45.925781 32.132812 45.996094 32.390625 C 46.070312 32.648438 46.15625 32.933594 46.261719 33.25 L 52.875 51.777344 L 52.894531 51.84375 C 53.113281 52.460938 53.449219 52.863281 53.898438 53.046875 L 53.898438 53.667969 Z M 66.640625 45.347656 L 71.417969 32.949219 L 71.457031 32.839844 C 71.621094 32.398438 71.707031 32.089844 71.707031 31.921875 C 71.707031 31.757812 71.644531 31.621094 71.511719 31.496094 C 71.386719 31.378906 71.1875 31.269531 70.917969 31.164062 L 70.917969 30.5625 L 78.242188 30.5625 L 78.242188 31.164062 C 77.769531 31.597656 77.265625 32.5 76.730469 33.875 C 76.660156 34.070312 76.605469 34.210938 76.582031 34.285156 L 69.925781 51.242188 L 69.886719 51.351562 C 69.722656 51.792969 69.636719 52.078125 69.636719 52.210938 C 69.636719 52.394531 69.707031 52.5625 69.859375 52.703125 C 70.003906 52.847656 70.210938 52.957031 70.46875 53.046875 L 70.46875 53.667969 L 61.800781 53.667969 L 61.800781 53.046875 C 62.066406 52.957031 62.257812 52.855469 62.394531 52.722656 C 62.527344 52.589844 62.601562 52.4375 62.601562 52.253906 C 62.601562 52.152344 62.574219 52.019531 62.519531 51.851562 C 62.46875 51.6875 62.382812 51.484375 62.269531 51.242188 L 54.664062 32.457031 C 54.636719 32.398438 54.613281 32.316406 54.574219 32.222656 C 54.347656 31.699219 54.042969 31.347656 53.640625 31.164062 L 53.640625 30.5625 L 62.078125 30.5625 L 62.078125 31.164062 C 61.800781 31.269531 61.601562 31.378906 61.476562 31.496094 C 61.34375 31.621094 61.28125 31.757812 61.28125 31.921875 C 61.28125 32 61.304688 32.125 61.359375 32.296875 C 61.410156 32.457031 61.496094 32.667969 61.609375 32.925781 Z M 86.5 44.902344 L 93.464844 44.902344 L 89.867188 34.730469 Z M 95.226562 53.667969 L 95.226562 53.046875 C 95.484375 52.972656 95.671875 52.878906 95.796875 52.753906 C 95.921875 52.636719 95.980469 52.464844 95.980469 52.253906 C 95.980469 52.152344 95.960938 52.027344 95.921875 51.871094 C 95.882812 51.726562 95.816406 51.511719 95.730469 51.242188 L 94.898438 48.746094 L 85.246094 48.746094 L 84.394531 51.242188 C 84.34375 51.378906 84.304688 51.511719 84.277344 51.636719 C 84.25 51.761719 84.238281 51.878906 84.238281 51.988281 C 84.238281 52.269531 84.308594 52.488281 84.441406 52.65625 C 84.582031 52.832031 84.785156 52.957031 85.070312 53.046875 L 85.070312 53.667969 L 77.992188 53.667969 L 77.992188 53.046875 C 78.683594 52.644531 79.265625 51.703125 79.734375 50.226562 C 79.789062 50.074219 79.820312 49.957031 79.847656 49.882812 L 85.320312 33.25 C 85.425781 32.917969 85.511719 32.632812 85.578125 32.390625 C 85.636719 32.148438 85.667969 31.972656 85.667969 31.875 C 85.667969 31.640625 85.621094 31.472656 85.539062 31.371094 C 85.445312 31.261719 85.292969 31.195312 85.070312 31.164062 L 85.070312 30.5625 L 95.417969 30.5625 L 95.417969 31.164062 C 95.203125 31.195312 95.042969 31.261719 94.957031 31.371094 C 94.863281 31.472656 94.820312 31.640625 94.820312 31.875 C 94.820312 31.957031 94.851562 32.132812 94.925781 32.390625 C 94.996094 32.648438 95.082031 32.933594 95.1875 33.25 L 101.800781 51.777344 L 101.820312 51.84375 C 102.039062 52.460938 102.375 52.863281 102.824219 53.046875 L 102.824219 53.667969 Z M 126.238281 48.210938 C 126.601562 48.210938 126.851562 48.144531 127.003906 48.003906 C 127.148438 47.875 127.273438 47.574219 127.378906 47.117188 L 127.941406 47.117188 L 127.941406 54.761719 L 127.378906 54.761719 C 127.273438 54.308594 127.15625 54.007812 127.011719 53.875 C 126.871094 53.734375 126.617188 53.667969 126.238281 53.667969 L 106.59375 53.667969 L 106.59375 53.046875 C 107.003906 52.945312 107.273438 52.820312 107.394531 52.65625 C 107.519531 52.503906 107.578125 52.210938 107.578125 51.777344 L 107.578125 32.457031 C 107.578125 32.023438 107.519531 31.730469 107.394531 31.574219 C 107.273438 31.414062 107.003906 31.28125 106.59375 31.164062 L 106.59375 30.5625 L 114.460938 30.5625 L 114.460938 31.164062 C 114.039062 31.28125 113.761719 31.421875 113.632812 31.582031 C 113.503906 31.753906 113.441406 32.039062 113.441406 32.457031 L 113.441406 48.210938 Z M 133.203125 53.667969 L 133.203125 53.046875 C 133.613281 52.945312 133.882812 52.820312 134 52.65625 C 134.128906 52.503906 134.1875 52.210938 134.1875 51.777344 L 134.1875 32.457031 C 134.1875 32.023438 134.128906 31.730469 134 31.574219 C 133.882812 31.414062 133.613281 31.28125 133.203125 31.164062 L 133.203125 30.5625 L 147.644531 30.5625 C 150.234375 30.5625 152.253906 31.203125 153.683594 32.484375 C 155.125 33.769531 155.84375 35.566406 155.84375 37.871094 C 155.84375 39.664062 155.394531 41.167969 154.503906 42.378906 C 153.605469 43.589844 152.273438 44.476562 150.511719 45.046875 L 153.601562 50.449219 C 154.140625 51.433594 154.578125 52.09375 154.90625 52.414062 C 155.238281 52.738281 155.601562 52.945312 155.996094 53.046875 L 155.996094 53.667969 L 147.644531 53.667969 L 147.664062 53.046875 C 147.882812 52.972656 148.046875 52.878906 148.152344 52.753906 C 148.265625 52.636719 148.320312 52.488281 148.320312 52.3125 C 148.320312 52.113281 148.199219 51.820312 147.957031 51.433594 C 147.851562 51.277344 147.769531 51.152344 147.71875 51.066406 L 144.320312 45.136719 L 140.046875 45.136719 L 140.046875 51.777344 C 140.046875 52.179688 140.113281 52.460938 140.238281 52.628906 C 140.371094 52.789062 140.648438 52.929688 141.070312 53.046875 L 141.070312 53.667969 Z M 140.046875 35.230469 L 140.046875 40.46875 L 145.152344 40.46875 C 146.773438 40.46875 147.949219 40.257812 148.667969 39.839844 C 149.386719 39.414062 149.75 38.746094 149.75 37.828125 C 149.75 36.867188 149.414062 36.199219 148.734375 35.808594 C 148.0625 35.421875 146.8125 35.230469 145 35.230469 Z M 174.503906 32.925781 C 174.691406 32.640625 174.828125 32.375 174.941406 32.140625 C 175.054688 31.90625 175.105469 31.730469 175.105469 31.621094 C 175.105469 31.472656 175.054688 31.355469 174.953125 31.261719 C 174.847656 31.164062 174.710938 31.121094 174.542969 31.121094 C 174.519531 31.121094 174.480469 31.128906 174.433594 31.144531 C 174.378906 31.15625 174.339844 31.164062 174.3125 31.164062 L 174.3125 30.5625 L 181.800781 30.5625 L 181.800781 31.164062 C 181.394531 31.480469 181.019531 31.921875 180.65625 32.480469 C 180.578125 32.589844 180.523438 32.675781 180.484375 32.734375 L 173.5625 43.71875 L 173.5625 51.777344 C 173.5625 52.210938 173.621094 52.503906 173.746094 52.65625 C 173.863281 52.820312 174.136719 52.945312 174.542969 53.046875 L 174.542969 53.667969 L 166.675781 53.667969 L 166.675781 53.046875 C 167.074219 52.945312 167.335938 52.820312 167.46875 52.65625 C 167.59375 52.503906 167.660156 52.210938 167.660156 51.777344 L 167.660156 44.601562 L 160.414062 33.015625 C 160.371094 32.957031 160.304688 32.851562 160.214844 32.714844 C 159.644531 31.824219 159.117188 31.3125 158.628906 31.164062 L 158.628906 30.5625 L 167.390625 30.5625 L 167.390625 31.164062 L 167.21875 31.164062 C 167.011719 31.179688 166.855469 31.222656 166.753906 31.304688 C 166.648438 31.386719 166.597656 31.503906 166.597656 31.65625 C 166.597656 31.746094 166.628906 31.863281 166.695312 32.015625 C 166.761719 32.164062 166.90625 32.441406 167.136719 32.839844 L 170.796875 38.753906 Z M 174.503906 32.925781 "/>
<path style=" stroke:none;fill-rule:evenodd;fill:rgb(61.569214%,76.863098%,20.783997%);fill-opacity:1;" d="M 122.523438 20.527344 L 122.523438 16.195312 L 129.894531 16.195312 Z M 137.621094 13.382812 L 146.300781 20.867188 L 123.09375 20.867188 L 130.929688 16.261719 L 130.929688 5.90625 L 146.300781 5.90625 Z M 60.894531 20.527344 L 60.894531 16.195312 L 53.523438 16.195312 Z M 45.800781 13.382812 L 37.117188 20.867188 L 60.324219 20.867188 L 52.492188 16.261719 L 52.492188 5.90625 L 37.117188 5.90625 Z M 52.746094 15.960938 L 130.671875 15.960938 L 130.671875 1 L 52.746094 1 Z M 52.746094 15.960938 "/>
<path style=" stroke:none;fill-rule:nonzero;fill:rgb(100%,100%,100%);fill-opacity:1;" d="M 70.90625 7.148438 L 70.90625 6.324219 C 70.90625 6.183594 70.867188 6.070312 70.785156 5.984375 C 70.707031 5.898438 70.617188 5.855469 70.515625 5.855469 C 70.402344 5.855469 70.304688 5.90625 70.226562 6.003906 C 70.144531 6.101562 70.105469 6.246094 70.105469 6.441406 L 70.105469 9.964844 C 70.105469 10.113281 70.144531 10.242188 70.226562 10.347656 C 70.304688 10.453125 70.402344 10.503906 70.515625 10.503906 C 70.625 10.503906 70.714844 10.457031 70.792969 10.363281 C 70.867188 10.269531 70.90625 10.136719 70.90625 9.964844 L 70.90625 8.765625 L 73.242188 8.765625 L 73.242188 11.207031 C 73.082031 11.476562 72.742188 11.683594 72.21875 11.832031 C 71.695312 11.980469 71.121094 12.054688 70.496094 12.054688 C 69.648438 12.054688 68.984375 11.878906 68.5 11.527344 C 67.96875 11.132812 67.699219 10.535156 67.699219 9.730469 L 67.699219 6.582031 C 67.699219 5.769531 67.90625 5.171875 68.316406 4.789062 C 68.730469 4.402344 69.371094 4.210938 70.242188 4.210938 C 70.867188 4.210938 71.410156 4.269531 71.867188 4.382812 C 72.328125 4.496094 72.785156 4.691406 73.242188 4.964844 L 73.242188 7.148438 Z M 76.324219 9.660156 L 76.324219 6.511719 C 76.324219 5.730469 76.554688 5.152344 77.023438 4.777344 C 77.488281 4.398438 78.214844 4.210938 79.210938 4.210938 C 80.179688 4.210938 80.875 4.390625 81.300781 4.746094 C 81.722656 5.101562 81.933594 5.667969 81.933594 6.441406 L 81.933594 9.894531 C 81.933594 10.644531 81.738281 11.199219 81.339844 11.550781 C 80.90625 11.933594 80.195312 12.125 79.210938 12.125 C 78.203125 12.125 77.46875 11.921875 77.011719 11.515625 C 76.550781 11.105469 76.324219 10.488281 76.324219 9.660156 Z M 79.597656 9.730469 L 79.597656 6.511719 C 79.597656 6.308594 79.59375 6.1875 79.585938 6.148438 C 79.558594 5.984375 79.429688 5.902344 79.210938 5.902344 C 78.886719 5.902344 78.726562 6.105469 78.726562 6.511719 L 78.726562 9.730469 C 78.726562 10.027344 78.769531 10.222656 78.855469 10.316406 C 78.9375 10.410156 79.054688 10.457031 79.210938 10.457031 C 79.46875 10.457031 79.597656 10.214844 79.597656 9.730469 Z M 85.0625 4.351562 L 90.511719 4.351562 L 90.511719 7.007812 L 88.472656 7.007812 L 88.472656 6.511719 C 88.472656 6.238281 88.355469 6.078125 88.117188 6.03125 C 87.9375 6.007812 87.800781 5.988281 87.71875 5.972656 L 87.71875 7.429688 L 89.160156 7.429688 L 89.160156 8.90625 L 87.71875 8.90625 L 87.71875 9.894531 C 87.71875 10.074219 87.726562 10.210938 87.746094 10.304688 C 87.765625 10.398438 87.824219 10.496094 87.925781 10.597656 L 87.925781 11.984375 L 85.128906 11.984375 L 85.128906 10.597656 C 85.3125 10.472656 85.40625 10.261719 85.40625 9.964844 L 85.40625 6.324219 C 85.40625 6.160156 85.375 6.035156 85.320312 5.949219 C 85.261719 5.863281 85.175781 5.800781 85.0625 5.761719 Z M 93.339844 4.351562 L 98.792969 4.351562 L 98.792969 7.007812 L 96.753906 7.007812 L 96.753906 6.511719 C 96.753906 6.238281 96.636719 6.078125 96.398438 6.03125 C 96.214844 6.007812 96.082031 5.988281 95.996094 5.972656 L 95.996094 7.429688 L 97.441406 7.429688 L 97.441406 8.90625 L 95.996094 8.90625 L 95.996094 9.894531 C 95.996094 10.074219 96.007812 10.210938 96.027344 10.304688 C 96.046875 10.398438 96.105469 10.496094 96.203125 10.597656 L 96.203125 11.984375 L 93.410156 11.984375 L 93.410156 10.597656 C 93.59375 10.472656 93.683594 10.261719 93.683594 9.964844 L 93.683594 6.324219 C 93.683594 6.160156 93.65625 6.035156 93.597656 5.949219 C 93.542969 5.863281 93.457031 5.800781 93.339844 5.761719 Z M 101.597656 4.351562 L 107.210938 4.351562 L 107.210938 7.007812 L 105.011719 7.007812 L 105.011719 6.511719 C 105.011719 6.355469 104.953125 6.238281 104.832031 6.160156 C 104.714844 6.082031 104.566406 6.042969 104.390625 6.042969 L 104.1875 6.042969 L 104.1875 7.429688 L 105.699219 7.429688 L 105.699219 8.90625 L 104.1875 8.90625 L 104.1875 10.386719 L 104.371094 10.410156 C 104.582031 10.410156 104.742188 10.355469 104.851562 10.246094 C 104.957031 10.136719 105.011719 9.996094 105.011719 9.824219 L 105.011719 9.261719 L 107.210938 9.261719 L 107.210938 11.984375 L 101.597656 11.984375 L 101.597656 10.597656 C 101.683594 10.550781 101.738281 10.496094 101.765625 10.433594 C 101.789062 10.371094 101.804688 10.285156 101.804688 10.175781 L 101.804688 6.324219 C 101.804688 6.042969 101.734375 5.832031 101.597656 5.691406 Z M 110.105469 4.351562 L 115.71875 4.351562 L 115.71875 7.007812 L 113.519531 7.007812 L 113.519531 6.511719 C 113.519531 6.355469 113.460938 6.238281 113.34375 6.160156 C 113.222656 6.082031 113.078125 6.042969 112.902344 6.042969 L 112.695312 6.042969 L 112.695312 7.429688 L 114.207031 7.429688 L 114.207031 8.90625 L 112.695312 8.90625 L 112.695312 10.386719 L 112.878906 10.410156 C 113.09375 10.410156 113.253906 10.355469 113.359375 10.246094 C 113.464844 10.136719 113.519531 9.996094 113.519531 9.824219 L 113.519531 9.261719 L 115.71875 9.261719 L 115.71875 11.984375 L 110.105469 11.984375 L 110.105469 10.597656 C 110.191406 10.550781 110.246094 10.496094 110.273438 10.433594 C 110.300781 10.371094 110.3125 10.285156 110.3125 10.175781 L 110.3125 6.324219 C 110.3125 6.042969 110.242188 5.832031 110.105469 5.691406 Z M 110.105469 4.351562 "/>
<path style=" stroke:none;fill-rule:nonzero;fill:rgb(61.569214%,76.863098%,20.783997%);fill-opacity:1;" d="M 55.898438 64.871094 C 55.84375 65.039062 55.808594 65.121094 55.78125 65.121094 C 55.765625 65.121094 55.746094 65.097656 55.722656 65.050781 C 55.5625 64.59375 55.292969 64.230469 54.917969 63.96875 C 54.480469 63.664062 53.925781 63.511719 53.257812 63.511719 C 52.992188 63.511719 52.746094 63.527344 52.523438 63.566406 C 52.25 63.605469 52.015625 63.675781 51.820312 63.769531 C 51.324219 64 51.078125 64.390625 51.078125 64.929688 C 51.078125 65.566406 51.378906 65.988281 51.972656 66.203125 C 52.203125 66.289062 52.53125 66.359375 52.960938 66.417969 L 53.554688 66.5 C 53.832031 66.53125 54.050781 66.558594 54.199219 66.582031 C 54.695312 66.648438 55.109375 66.757812 55.449219 66.914062 C 55.753906 67.046875 55.996094 67.214844 56.175781 67.414062 C 56.332031 67.585938 56.445312 67.785156 56.511719 68.003906 C 56.570312 68.183594 56.597656 68.382812 56.597656 68.601562 C 56.597656 69.101562 56.480469 69.542969 56.242188 69.914062 C 56.027344 70.253906 55.722656 70.535156 55.324219 70.761719 C 54.976562 70.960938 54.566406 71.105469 54.097656 71.203125 C 53.679688 71.292969 53.246094 71.339844 52.789062 71.339844 C 52.152344 71.339844 51.574219 71.277344 51.058594 71.15625 C 50.820312 71.105469 50.554688 71.035156 50.269531 70.941406 L 49.390625 70.632812 L 49.769531 69.207031 C 49.796875 69.089844 49.820312 69.019531 49.832031 68.996094 C 49.84375 68.964844 49.863281 68.945312 49.890625 68.945312 C 49.933594 68.945312 49.960938 68.996094 49.972656 69.101562 C 50.050781 69.664062 50.394531 70.136719 51 70.523438 C 51.550781 70.867188 52.121094 71.042969 52.710938 71.042969 C 53.023438 71.042969 53.320312 71.019531 53.589844 70.972656 C 53.914062 70.910156 54.191406 70.820312 54.425781 70.703125 C 55.003906 70.40625 55.289062 69.933594 55.289062 69.285156 C 55.289062 68.707031 55.035156 68.3125 54.53125 68.097656 C 54.34375 68.023438 54.101562 67.964844 53.800781 67.910156 L 52.546875 67.730469 C 52.355469 67.699219 52.175781 67.667969 52.011719 67.640625 C 51.59375 67.550781 51.238281 67.433594 50.945312 67.300781 C 50.585938 67.132812 50.308594 66.921875 50.113281 66.675781 C 49.890625 66.386719 49.78125 66.042969 49.78125 65.648438 C 49.78125 65.179688 49.882812 64.777344 50.097656 64.4375 C 50.285156 64.136719 50.558594 63.886719 50.914062 63.691406 C 51.230469 63.519531 51.601562 63.394531 52.035156 63.3125 C 52.40625 63.242188 52.808594 63.207031 53.246094 63.207031 C 54.347656 63.207031 55.339844 63.378906 56.222656 63.722656 Z M 66.367188 67.277344 C 66.367188 66.800781 66.320312 66.355469 66.222656 65.933594 C 66.113281 65.472656 65.957031 65.070312 65.742188 64.726562 C 65.507812 64.34375 65.214844 64.050781 64.863281 63.84375 C 64.480469 63.621094 64.035156 63.511719 63.527344 63.511719 C 63.019531 63.511719 62.574219 63.621094 62.191406 63.84375 C 61.84375 64.050781 61.550781 64.34375 61.316406 64.726562 C 61.101562 65.070312 60.9375 65.472656 60.835938 65.933594 C 60.734375 66.355469 60.683594 66.800781 60.683594 67.277344 C 60.683594 67.746094 60.734375 68.191406 60.835938 68.613281 C 60.9375 69.074219 61.101562 69.480469 61.316406 69.824219 C 61.550781 70.203125 61.84375 70.496094 62.191406 70.703125 C 62.574219 70.929688 63.019531 71.042969 63.527344 71.042969 C 64.035156 71.042969 64.480469 70.929688 64.863281 70.703125 C 65.214844 70.496094 65.507812 70.203125 65.742188 69.824219 C 65.957031 69.480469 66.113281 69.074219 66.222656 68.613281 C 66.320312 68.191406 66.367188 67.746094 66.367188 67.277344 Z M 67.925781 67.277344 C 67.925781 68.46875 67.476562 69.453125 66.582031 70.226562 C 65.730469 70.96875 64.710938 71.339844 63.527344 71.339844 C 62.339844 71.339844 61.324219 70.96875 60.476562 70.226562 C 59.578125 69.453125 59.128906 68.46875 59.128906 67.277344 C 59.128906 66.082031 59.578125 65.09375 60.476562 64.316406 C 61.324219 63.578125 62.339844 63.207031 63.527344 63.207031 C 64.710938 63.207031 65.730469 63.578125 66.582031 64.316406 C 67.476562 65.09375 67.925781 66.082031 67.925781 67.277344 Z M 72.371094 69.511719 C 72.371094 70.066406 72.484375 70.433594 72.71875 70.601562 C 72.894531 70.734375 73.257812 70.800781 73.804688 70.800781 L 74.421875 70.800781 C 74.929688 70.800781 75.472656 70.675781 76.046875 70.425781 C 76.664062 70.160156 77.140625 69.820312 77.480469 69.410156 L 77.628906 69.214844 C 77.667969 69.15625 77.703125 69.128906 77.726562 69.128906 C 77.769531 69.128906 77.792969 69.152344 77.792969 69.207031 C 77.792969 69.230469 77.789062 69.253906 77.777344 69.289062 C 77.761719 69.332031 77.75 69.363281 77.746094 69.378906 L 77.269531 71.097656 L 70.429688 71.097656 C 70.257812 71.097656 70.171875 71.078125 70.171875 71.042969 C 70.171875 71.039062 70.265625 71 70.449219 70.929688 C 70.832031 70.761719 71.023438 70.191406 71.023438 69.21875 L 71.023438 64.503906 C 71.023438 63.980469 70.855469 63.660156 70.519531 63.546875 C 70.445312 63.511719 70.40625 63.480469 70.40625 63.445312 C 70.40625 63.417969 70.460938 63.402344 70.582031 63.402344 L 71.070312 63.421875 C 71.34375 63.4375 71.554688 63.445312 71.695312 63.445312 C 71.835938 63.445312 72.046875 63.4375 72.324219 63.421875 L 72.8125 63.402344 C 72.90625 63.402344 72.953125 63.417969 72.953125 63.460938 C 72.953125 63.476562 72.941406 63.488281 72.917969 63.5 L 72.847656 63.535156 C 72.53125 63.675781 72.371094 64 72.371094 64.503906 Z M 81.878906 68.757812 C 81.878906 69.480469 82.117188 70.050781 82.589844 70.457031 C 83.035156 70.847656 83.621094 71.042969 84.355469 71.042969 C 86.207031 71.042969 87.132812 70.054688 87.132812 68.074219 L 87.132812 65.578125 C 87.132812 65 87.058594 64.546875 86.914062 64.210938 C 86.785156 63.917969 86.59375 63.703125 86.335938 63.570312 L 86.238281 63.511719 C 86.203125 63.484375 86.1875 63.460938 86.1875 63.445312 C 86.1875 63.417969 86.21875 63.402344 86.277344 63.402344 L 87.253906 63.445312 L 88.210938 63.402344 C 88.328125 63.402344 88.386719 63.417969 88.386719 63.445312 C 88.386719 63.46875 88.328125 63.519531 88.210938 63.605469 C 87.992188 63.746094 87.820312 63.945312 87.6875 64.210938 C 87.511719 64.566406 87.421875 65.019531 87.417969 65.578125 L 87.417969 68.066406 C 87.417969 70.246094 86.320312 71.339844 84.125 71.339844 C 83.628906 71.339844 83.191406 71.308594 82.8125 71.238281 C 82.359375 71.160156 81.976562 71.039062 81.660156 70.867188 C 81.300781 70.667969 81.027344 70.40625 80.839844 70.082031 C 80.632812 69.726562 80.535156 69.289062 80.535156 68.769531 L 80.535156 64.503906 C 80.535156 63.933594 80.363281 63.609375 80.027344 63.523438 C 79.953125 63.488281 79.914062 63.460938 79.914062 63.445312 C 79.914062 63.417969 79.972656 63.402344 80.089844 63.402344 L 80.578125 63.421875 C 80.855469 63.4375 81.0625 63.445312 81.203125 63.445312 C 81.34375 63.445312 81.554688 63.4375 81.832031 63.421875 L 82.320312 63.402344 C 82.441406 63.402344 82.496094 63.417969 82.496094 63.445312 C 82.496094 63.460938 82.460938 63.488281 82.378906 63.523438 C 82.046875 63.609375 81.878906 63.933594 81.878906 64.503906 Z M 93.566406 64.300781 C 93.566406 63.929688 93.324219 63.746094 92.84375 63.746094 C 92.332031 63.746094 91.847656 63.878906 91.382812 64.148438 C 91.199219 64.253906 91.011719 64.378906 90.832031 64.527344 C 90.695312 64.640625 90.546875 64.773438 90.390625 64.929688 L 90.261719 65.066406 C 90.21875 65.109375 90.191406 65.132812 90.179688 65.132812 C 90.140625 65.132812 90.121094 65.109375 90.121094 65.066406 C 90.121094 65.046875 90.132812 65.007812 90.152344 64.953125 C 90.15625 64.945312 90.160156 64.929688 90.164062 64.914062 L 90.574219 63.445312 L 97.90625 63.445312 L 98.304688 64.878906 C 98.308594 64.886719 98.316406 64.898438 98.324219 64.914062 C 98.328125 64.929688 98.328125 64.945312 98.332031 64.953125 C 98.351562 65.007812 98.363281 65.046875 98.363281 65.066406 C 98.363281 65.109375 98.34375 65.132812 98.304688 65.132812 C 98.292969 65.132812 98.265625 65.109375 98.21875 65.066406 L 98.09375 64.929688 C 97.933594 64.773438 97.789062 64.640625 97.652344 64.527344 C 97.46875 64.378906 97.285156 64.253906 97.101562 64.148438 C 96.636719 63.878906 96.148438 63.746094 95.640625 63.746094 C 95.160156 63.746094 94.917969 63.929688 94.917969 64.300781 L 94.917969 69.808594 C 94.917969 70.488281 95.152344 70.875 95.617188 70.964844 C 95.730469 70.980469 95.789062 71.015625 95.789062 71.0625 C 95.789062 71.109375 95.757812 71.136719 95.695312 71.136719 L 95.371094 71.125 C 95.308594 71.125 95.246094 71.121094 95.183594 71.117188 C 94.824219 71.105469 94.511719 71.097656 94.242188 71.097656 C 93.972656 71.097656 93.660156 71.105469 93.308594 71.117188 C 93.25 71.121094 93.1875 71.125 93.121094 71.125 L 92.808594 71.136719 C 92.742188 71.136719 92.707031 71.113281 92.707031 71.074219 C 92.707031 71.058594 92.726562 71.042969 92.769531 71.03125 L 92.804688 71.019531 C 92.824219 71.015625 92.835938 71.007812 92.84375 71.003906 L 92.929688 70.980469 C 93.191406 70.863281 93.363281 70.6875 93.445312 70.457031 C 93.527344 70.238281 93.566406 69.847656 93.566406 69.285156 Z M 101.035156 64.503906 C 101.023438 63.953125 100.871094 63.640625 100.578125 63.570312 L 100.5 63.539062 C 100.46875 63.527344 100.453125 63.511719 100.453125 63.496094 C 100.453125 63.429688 100.5 63.402344 100.589844 63.402344 L 101.039062 63.421875 C 101.335938 63.4375 101.558594 63.445312 101.710938 63.445312 C 101.859375 63.445312 102.0625 63.4375 102.324219 63.421875 L 102.710938 63.402344 C 102.753906 63.402344 102.785156 63.40625 102.8125 63.417969 C 102.855469 63.433594 102.875 63.460938 102.875 63.496094 C 102.875 63.511719 102.855469 63.535156 102.804688 63.566406 L 102.6875 63.628906 C 102.644531 63.65625 102.609375 63.683594 102.578125 63.714844 C 102.542969 63.753906 102.511719 63.796875 102.484375 63.84375 C 102.417969 63.960938 102.386719 64.109375 102.386719 64.289062 L 102.386719 69.808594 C 102.386719 70.414062 102.574219 70.808594 102.953125 70.980469 C 103.066406 71.039062 103.121094 71.066406 103.121094 71.074219 C 103.121094 71.089844 103.078125 71.097656 102.988281 71.097656 L 100.390625 71.097656 C 100.332031 71.097656 100.300781 71.089844 100.300781 71.074219 C 100.300781 71.0625 100.316406 71.050781 100.351562 71.035156 L 100.488281 70.980469 C 100.851562 70.785156 101.035156 70.390625 101.035156 69.808594 Z M 112.65625 67.277344 C 112.65625 66.800781 112.609375 66.355469 112.507812 65.933594 C 112.402344 65.472656 112.242188 65.070312 112.03125 64.726562 C 111.796875 64.34375 111.503906 64.050781 111.152344 63.84375 C 110.769531 63.621094 110.324219 63.511719 109.816406 63.511719 C 109.308594 63.511719 108.863281 63.621094 108.480469 63.84375 C 108.132812 64.050781 107.839844 64.34375 107.605469 64.726562 C 107.386719 65.070312 107.226562 65.472656 107.121094 65.933594 C 107.023438 66.355469 106.972656 66.800781 106.972656 67.277344 C 106.972656 67.746094 107.023438 68.191406 107.121094 68.613281 C 107.226562 69.074219 107.386719 69.480469 107.605469 69.824219 C 107.839844 70.203125 108.132812 70.496094 108.480469 70.703125 C 108.863281 70.929688 109.308594 71.042969 109.816406 71.042969 C 110.324219 71.042969 110.769531 70.929688 111.152344 70.703125 C 111.503906 70.496094 111.796875 70.203125 112.03125 69.824219 C 112.242188 69.480469 112.402344 69.074219 112.507812 68.613281 C 112.609375 68.191406 112.65625 67.746094 112.65625 67.277344 Z M 114.214844 67.277344 C 114.214844 68.46875 113.765625 69.453125 112.871094 70.226562 C 112.019531 70.96875 111 71.339844 109.816406 71.339844 C 108.628906 71.339844 107.613281 70.96875 106.765625 70.226562 C 105.867188 69.453125 105.417969 68.46875 105.417969 67.277344 C 105.417969 66.082031 105.867188 65.09375 106.765625 64.316406 C 107.613281 63.578125 108.628906 63.207031 109.816406 63.207031 C 111 63.207031 112.019531 63.578125 112.871094 64.316406 C 113.765625 65.09375 114.214844 66.082031 114.214844 67.277344 Z M 117.585938 68.96875 C 117.585938 69.460938 117.636719 69.851562 117.746094 70.148438 C 117.882812 70.542969 118.125 70.816406 118.472656 70.980469 L 118.570312 71.019531 C 118.597656 71.03125 118.613281 71.042969 118.613281 71.054688 C 118.613281 71.082031 118.527344 71.097656 118.351562 71.097656 L 116.398438 71.097656 C 116.332031 71.097656 116.296875 71.089844 116.296875 71.074219 C 116.296875 71.046875 116.324219 71.03125 116.375 71.03125 C 116.726562 70.855469 116.976562 70.5625 117.125 70.152344 C 117.238281 69.839844 117.296875 69.445312 117.296875 68.96875 L 117.296875 65.625 C 117.296875 64.914062 117.242188 64.410156 117.144531 64.113281 C 117.066406 63.886719 116.929688 63.730469 116.738281 63.640625 C 116.597656 63.574219 116.527344 63.53125 116.527344 63.511719 C 116.527344 63.46875 116.585938 63.445312 116.703125 63.445312 L 118.636719 63.445312 L 123.757812 68.816406 L 123.757812 65.957031 C 123.757812 65.652344 123.746094 65.386719 123.722656 65.167969 C 123.699219 64.902344 123.660156 64.667969 123.597656 64.476562 C 123.460938 64.019531 123.210938 63.714844 122.847656 63.558594 C 122.789062 63.535156 122.757812 63.503906 122.757812 63.460938 C 122.757812 63.417969 122.804688 63.402344 122.902344 63.402344 L 124.816406 63.402344 C 124.894531 63.402344 124.933594 63.417969 124.933594 63.445312 C 124.933594 63.484375 124.867188 63.535156 124.734375 63.605469 C 124.472656 63.738281 124.289062 64 124.179688 64.386719 C 124.089844 64.695312 124.046875 65.089844 124.046875 65.578125 L 124.046875 71.179688 C 124.046875 71.226562 124.039062 71.269531 124.027344 71.304688 C 124.015625 71.34375 124.003906 71.363281 123.988281 71.363281 L 123.96875 71.363281 C 123.9375 71.363281 123.898438 71.339844 123.855469 71.292969 C 123.839844 71.277344 123.816406 71.253906 123.789062 71.222656 L 117.585938 64.277344 Z M 133.316406 64.871094 C 133.265625 65.039062 133.226562 65.121094 133.199219 65.121094 C 133.183594 65.121094 133.164062 65.097656 133.140625 65.050781 C 132.984375 64.59375 132.714844 64.230469 132.335938 63.96875 C 131.898438 63.664062 131.347656 63.511719 130.675781 63.511719 C 130.410156 63.511719 130.167969 63.527344 129.941406 63.566406 C 129.667969 63.605469 129.433594 63.675781 129.238281 63.769531 C 128.746094 64 128.496094 64.390625 128.496094 64.929688 C 128.496094 65.566406 128.796875 65.988281 129.390625 66.203125 C 129.621094 66.289062 129.949219 66.359375 130.378906 66.417969 L 130.972656 66.5 C 131.25 66.53125 131.46875 66.558594 131.617188 66.582031 C 132.113281 66.648438 132.527344 66.757812 132.867188 66.914062 C 133.171875 67.046875 133.414062 67.214844 133.59375 67.414062 C 133.75 67.585938 133.863281 67.785156 133.929688 68.003906 C 133.988281 68.183594 134.015625 68.382812 134.015625 68.601562 C 134.015625 69.101562 133.898438 69.542969 133.660156 69.914062 C 133.445312 70.253906 133.140625 70.535156 132.742188 70.761719 C 132.394531 70.960938 131.984375 71.105469 131.515625 71.203125 C 131.097656 71.292969 130.664062 71.339844 130.207031 71.339844 C 129.574219 71.339844 128.996094 71.277344 128.476562 71.15625 C 128.238281 71.105469 127.972656 71.035156 127.6875 70.941406 L 126.808594 70.632812 L 127.1875 69.207031 C 127.214844 69.089844 127.238281 69.019531 127.25 68.996094 C 127.265625 68.964844 127.285156 68.945312 127.3125 68.945312 C 127.355469 68.945312 127.378906 68.996094 127.390625 69.101562 C 127.46875 69.664062 127.8125 70.136719 128.417969 70.523438 C 128.96875 70.867188 129.539062 71.042969 130.128906 71.042969 C 130.445312 71.042969 130.738281 71.019531 131.011719 70.972656 C 131.332031 70.910156 131.613281 70.820312 131.847656 70.703125 C 132.421875 70.40625 132.710938 69.933594 132.710938 69.285156 C 132.710938 68.707031 132.453125 68.3125 131.949219 68.097656 C 131.761719 68.023438 131.519531 67.964844 131.222656 67.910156 L 129.964844 67.730469 C 129.773438 67.699219 129.59375 67.667969 129.429688 67.640625 C 129.015625 67.550781 128.65625 67.433594 128.363281 67.300781 C 128.003906 67.132812 127.726562 66.921875 127.53125 66.675781 C 127.308594 66.386719 127.199219 66.042969 127.199219 65.648438 C 127.199219 65.179688 127.304688 64.777344 127.515625 64.4375 C 127.703125 64.136719 127.976562 63.886719 128.332031 63.691406 C 128.648438 63.519531 129.023438 63.394531 129.453125 63.3125 C 129.824219 63.242188 130.226562 63.207031 130.664062 63.207031 C 131.765625 63.207031 132.757812 63.378906 133.640625 63.722656 Z M 133.316406 64.871094 "/>
<path style=" stroke:none;fill-rule:evenodd;fill:rgb(61.569214%,76.863098%,20.783997%);fill-opacity:1;" d="M 1 69.898438 L 46.082031 69.898438 L 46.082031 70.886719 L 1 70.886719 Z M 1 69.898438 "/>
<path style=" stroke:none;fill-rule:evenodd;fill:rgb(61.569214%,76.863098%,20.783997%);fill-opacity:1;" d="M 137.335938 69.898438 L 182.417969 69.898438 L 182.417969 70.886719 L 137.335938 70.886719 Z M 137.335938 69.898438 "/>
<path style=" stroke:none;fill-rule:evenodd;fill:rgb(92.941284%,10.980225%,14.117432%);fill-opacity:1;" d="M 188.957031 27.960938 C 190.871094 27.960938 192.425781 29.460938 192.425781 31.3125 C 192.425781 33.164062 190.871094 34.667969 188.957031 34.667969 C 187.042969 34.667969 185.488281 33.164062 185.488281 31.3125 C 185.488281 29.460938 187.042969 27.960938 188.957031 27.960938 Z M 188.957031 27.398438 C 191.191406 27.398438 193.007812 29.152344 193.007812 31.3125 C 193.007812 33.476562 191.191406 35.230469 188.957031 35.230469 C 186.71875 35.230469 184.90625 33.476562 184.90625 31.3125 C 184.90625 29.152344 186.71875 27.398438 188.957031 27.398438 Z M 187.398438 33.265625 L 187.398438 29.363281 L 189.1875 29.363281 C 189.546875 29.363281 189.820312 29.398438 190.007812 29.46875 C 190.195312 29.539062 190.34375 29.660156 190.457031 29.839844 C 190.570312 30.015625 190.625 30.210938 190.625 30.425781 C 190.625 30.703125 190.53125 30.9375 190.347656 31.125 C 190.160156 31.316406 189.875 31.4375 189.488281 31.488281 C 189.628906 31.554688 189.738281 31.621094 189.8125 31.683594 C 189.964844 31.820312 190.113281 31.996094 190.253906 32.203125 L 190.957031 33.265625 L 190.285156 33.265625 L 189.75 32.453125 C 189.59375 32.21875 189.464844 32.039062 189.363281 31.914062 C 189.265625 31.789062 189.171875 31.703125 189.09375 31.65625 C 189.015625 31.605469 188.933594 31.570312 188.851562 31.550781 C 188.789062 31.539062 188.691406 31.53125 188.550781 31.53125 L 187.933594 31.53125 L 187.933594 33.265625 Z M 187.933594 31.085938 L 189.082031 31.085938 C 189.324219 31.085938 189.515625 31.058594 189.652344 31.011719 C 189.792969 30.960938 189.894531 30.882812 189.96875 30.777344 C 190.039062 30.667969 190.074219 30.554688 190.074219 30.425781 C 190.074219 30.242188 190.007812 30.089844 189.867188 29.972656 C 189.730469 29.851562 189.511719 29.792969 189.210938 29.792969 L 187.933594 29.792969 Z M 187.933594 31.085938 "/>
</g>
</svg>
